<?xml version="1.0" encoding="utf-8"?>
<!-- Generator: Adobe Illustrator 24.1.0, SVG Export Plug-In . SVG Version: 6.00 Build 0)  -->
<svg version="1.1" xmlns="http://www.w3.org/2000/svg" xmlns:xlink="http://www.w3.org/1999/xlink" x="0px" y="0px"
	 viewBox="0 0 1920 1080" style="enable-background:new 0 0 1920 1080;" xml:space="preserve">
<style type="text/css">
      <![CDATA[
        @import url("../css/style.css");
        /* votre CSS ici */
      ]]>
	.st0{opacity:0.75;}
	.st1{fill:none;stroke-width:4;stroke-miterlimit:10;}
	.st2{fill:none;stroke-width:4;stroke-linecap:square;stroke-miterlimit:10;}
	.st3{fill:none;stroke-width:2.2442;stroke-linecap:square;stroke-miterlimit:10;}
	.st4{fill:#F39200;stroke-miterlimit:10;}
	.st5{fill:none;stroke-width:3.9631;stroke-linecap:square;stroke-miterlimit:10;}
	.st6{fill:none;stroke-width:4;stroke-miterlimit:10;}
</style>
<g id="Calque_2">
	<polygon class="st0" points="39.6,819.2 1366.3,819.2 1550.3,968.6 1550.3,1039.3 39.6,1039.3 	"/>
	<polygon class="st1" points="39.6,819.2 1366.3,819.2 1550.3,968.6 1550.3,1039.3 39.6,1039.3 	"/>
	<polyline class="st2" points="39.6,768.9 68.8,798.1 310.7,798.1 	"/>
	<line class="st3" x1="1526.5" y1="1021.2" x2="1541" y2="1021.2"/>
	<line class="st3" x1="1533.8" y1="1012.9" x2="1533.8" y2="1029.5"/>
	<line class="st3" x1="1243.3" y1="1021.2" x2="1257.9" y2="1021.2"/>
	<line class="st3" x1="1250.6" y1="1012.9" x2="1250.6" y2="1029.5"/>
	<line class="st3" x1="333.7" y1="1021.2" x2="348.3" y2="1021.2"/>
	<line class="st3" x1="341" y1="1012.9" x2="341" y2="1029.5"/>
	<line class="st3" x1="52.7" y1="1021.2" x2="67.3" y2="1021.2"/>
	<line class="st3" x1="60" y1="1012.9" x2="60" y2="1029.5"/>
</g>
<g id="Calque_4">
</g>
<g id="Calque_5">
	<g>
		<line class="st2" x1="1876.3" y1="43.5" x2="426.5" y2="43.5"/>
		<g>
			<g>
				<line class="st2" x1="426.5" y1="65.2" x2="426.5" y2="43.5"/>
				<line class="st1" x1="454.4" y1="62.1" x2="454.4" y2="51.2"/>
				<line class="st1" x1="485.6" y1="62.1" x2="485.6" y2="51.2"/>
				<line class="st1" x1="516.9" y1="62.1" x2="516.9" y2="51.2"/>
				<line class="st1" x1="545" y1="62.1" x2="545" y2="51.2"/>
			</g>
			<g>
				<line class="st2" x1="569.2" y1="65.2" x2="569.2" y2="43.5"/>
				<line class="st1" x1="597" y1="62.1" x2="597" y2="51.2"/>
				<line class="st1" x1="628.3" y1="62.1" x2="628.3" y2="51.2"/>
				<line class="st1" x1="659.5" y1="62.1" x2="659.5" y2="51.2"/>
				<line class="st1" x1="687.6" y1="62.1" x2="687.6" y2="51.2"/>
			</g>
			<g>
				<line class="st2" x1="714.3" y1="65.2" x2="714.3" y2="43.5"/>
				<line class="st1" x1="742.2" y1="62.1" x2="742.2" y2="51.2"/>
				<line class="st1" x1="773.5" y1="62.1" x2="773.5" y2="51.2"/>
				<line class="st1" x1="804.7" y1="62.1" x2="804.7" y2="51.2"/>
				<line class="st1" x1="832.8" y1="62.1" x2="832.8" y2="51.2"/>
			</g>
			<g>
				<line class="st2" x1="860.7" y1="65.2" x2="860.7" y2="43.5"/>
				<line class="st1" x1="888.5" y1="62.1" x2="888.5" y2="51.2"/>
				<line class="st1" x1="919.8" y1="62.1" x2="919.8" y2="51.2"/>
				<line class="st1" x1="951" y1="62.1" x2="951" y2="51.2"/>
				<line class="st1" x1="979.1" y1="62.1" x2="979.1" y2="51.2"/>
			</g>
			<g>
				<line class="st2" x1="1005.8" y1="65.2" x2="1005.8" y2="43.5"/>
				<line class="st1" x1="1033.7" y1="62.1" x2="1033.7" y2="51.2"/>
				<line class="st1" x1="1065" y1="62.1" x2="1065" y2="51.2"/>
				<line class="st1" x1="1096.2" y1="62.1" x2="1096.2" y2="51.2"/>
				<line class="st1" x1="1124.3" y1="62.1" x2="1124.3" y2="51.2"/>
			</g>
			<g>
				<line class="st2" x1="1148.5" y1="65.2" x2="1148.5" y2="43.5"/>
				<line class="st1" x1="1176.4" y1="62.1" x2="1176.4" y2="51.2"/>
				<line class="st1" x1="1207.6" y1="62.1" x2="1207.6" y2="51.2"/>
				<line class="st1" x1="1238.8" y1="62.1" x2="1238.8" y2="51.2"/>
				<line class="st1" x1="1266.9" y1="62.1" x2="1266.9" y2="51.2"/>
			</g>
			<g>
				<line class="st2" x1="1293.6" y1="65.2" x2="1293.6" y2="43.5"/>
				<line class="st1" x1="1321.5" y1="62.1" x2="1321.5" y2="51.2"/>
				<line class="st1" x1="1352.8" y1="62.1" x2="1352.8" y2="51.2"/>
				<line class="st1" x1="1384" y1="62.1" x2="1384" y2="51.2"/>
				<line class="st1" x1="1412.1" y1="62.1" x2="1412.1" y2="51.2"/>
			</g>
			<g>
				<line class="st2" x1="1443.3" y1="65.2" x2="1443.3" y2="43.5"/>
				<line class="st1" x1="1471.2" y1="62.1" x2="1471.2" y2="51.2"/>
				<line class="st1" x1="1502.5" y1="62.1" x2="1502.5" y2="51.2"/>
				<line class="st1" x1="1533.7" y1="62.1" x2="1533.7" y2="51.2"/>
				<line class="st1" x1="1561.8" y1="62.1" x2="1561.8" y2="51.2"/>
			</g>
			<g>
				<line class="st2" x1="1588.5" y1="65.2" x2="1588.5" y2="43.5"/>
				<line class="st1" x1="1616.4" y1="62.1" x2="1616.4" y2="51.2"/>
				<line class="st1" x1="1647.6" y1="62.1" x2="1647.6" y2="51.2"/>
				<line class="st1" x1="1678.9" y1="62.1" x2="1678.9" y2="51.2"/>
				<line class="st1" x1="1707" y1="62.1" x2="1707" y2="51.2"/>
			</g>
			<g>
				<line class="st2" x1="1731.2" y1="65.2" x2="1731.2" y2="43.5"/>
				<line class="st1" x1="1759" y1="62.1" x2="1759" y2="51.2"/>
				<line class="st1" x1="1790.3" y1="62.1" x2="1790.3" y2="51.2"/>
				<line class="st1" x1="1821.5" y1="62.1" x2="1821.5" y2="51.2"/>
				<line class="st1" x1="1849.6" y1="62.1" x2="1849.6" y2="51.2"/>
			</g>
		</g>
		<g>
			<g>
				<path class="st4" d="M1725.7,93.2h-3.7v4.1h-1.3v-4.1h-3.7v-1.3h3.7v-4.1h1.3v4.1h3.7V93.2z"/>
				<path class="st4" d="M1731,99.6c-0.8-0.6-1.5-1.6-2-2.8c-0.5-1.2-0.7-2.6-0.7-4.3s0.2-3.1,0.7-4.3c0.5-1.2,1.1-2.1,2-2.8
					c0.8-0.6,1.8-1,2.9-1s2,0.3,2.9,1c0.8,0.6,1.5,1.6,2,2.8c0.5,1.2,0.7,2.6,0.7,4.3s-0.2,3.1-0.7,4.3c-0.5,1.2-1.1,2.1-2,2.8
					c-0.9,0.6-1.8,1-2.9,1S1731.9,100.2,1731,99.6z M1736.1,98.3c0.6-0.5,1.1-1.3,1.5-2.2c0.3-1,0.5-2.2,0.5-3.5s-0.2-2.6-0.5-3.5
					c-0.3-1-0.8-1.7-1.5-2.2c-0.6-0.5-1.3-0.8-2.2-0.8s-1.5,0.3-2.2,0.8c-0.6,0.5-1.1,1.3-1.5,2.2c-0.3,1-0.5,2.2-0.5,3.5
					s0.2,2.6,0.5,3.5c0.3,1,0.8,1.7,1.5,2.2c0.6,0.5,1.3,0.8,2.2,0.8S1735.4,98.8,1736.1,98.3z"/>
				<path class="st4" d="M1745.5,84.6v15.8h-1.4V86.1h-3.3v-1.4H1745.5z"/>
			</g>
			<g>
				<path class="st4" d="M1582.2,93.2h-3.7v4.1h-1.3v-4.1h-3.7v-1.3h3.7v-4.1h1.3v4.1h3.7V93.2z"/>
				<path class="st4" d="M1587.5,99.6c-0.8-0.6-1.5-1.6-2-2.8c-0.5-1.2-0.7-2.6-0.7-4.3s0.2-3.1,0.7-4.3c0.5-1.2,1.1-2.1,2-2.8
					c0.8-0.6,1.8-1,2.9-1s2,0.3,2.9,1c0.8,0.6,1.5,1.6,2,2.8c0.5,1.2,0.7,2.6,0.7,4.3s-0.2,3.1-0.7,4.3c-0.5,1.2-1.1,2.1-2,2.8
					c-0.9,0.6-1.8,1-2.9,1S1588.3,100.2,1587.5,99.6z M1592.5,98.3c0.6-0.5,1.1-1.3,1.5-2.2c0.3-1,0.5-2.2,0.5-3.5s-0.2-2.6-0.5-3.5
					c-0.3-1-0.8-1.7-1.5-2.2c-0.6-0.5-1.3-0.8-2.2-0.8s-1.5,0.3-2.2,0.8c-0.6,0.5-1.1,1.3-1.5,2.2c-0.3,1-0.5,2.2-0.5,3.5
					s0.2,2.6,0.5,3.5c0.3,1,0.8,1.7,1.5,2.2c0.6,0.5,1.3,0.8,2.2,0.8S1591.9,98.8,1592.5,98.3z"/>
				<path class="st4" d="M1607.6,98.9v1.4h-9.9v-1.1l5.8-6.4c0.7-0.8,1.2-1.5,1.5-2.1c0.3-0.6,0.4-1.2,0.4-1.8
					c0-0.9-0.3-1.7-0.9-2.2c-0.6-0.5-1.4-0.8-2.4-0.8c-1.6,0-2.9,0.6-3.8,1.8l-1-1c0.5-0.7,1.2-1.3,2.1-1.7c0.8-0.4,1.8-0.6,2.9-0.6
					c1.4,0,2.6,0.4,3.4,1.1c0.8,0.8,1.3,1.8,1.3,3.1c0,0.8-0.2,1.6-0.5,2.3c-0.3,0.8-0.9,1.6-1.8,2.6l-4.8,5.3H1607.6z"/>
			</g>
			<g>
				<path class="st4" d="M1435.9,93.2h-3.7v4.1h-1.3v-4.1h-3.7v-1.3h3.7v-4.1h1.3v4.1h3.7V93.2z"/>
				<path class="st4" d="M1441.2,99.6c-0.8-0.6-1.5-1.6-2-2.8c-0.5-1.2-0.7-2.6-0.7-4.3s0.2-3.1,0.7-4.3c0.5-1.2,1.1-2.1,2-2.8
					c0.8-0.6,1.8-1,2.9-1s2,0.3,2.9,1c0.8,0.6,1.5,1.6,2,2.8c0.5,1.2,0.7,2.6,0.7,4.3s-0.2,3.1-0.7,4.3c-0.5,1.2-1.1,2.1-2,2.8
					c-0.9,0.6-1.8,1-2.9,1S1442,100.2,1441.2,99.6z M1446.3,98.3c0.6-0.5,1.1-1.3,1.5-2.2c0.3-1,0.5-2.2,0.5-3.5s-0.2-2.6-0.5-3.5
					c-0.3-1-0.8-1.7-1.5-2.2c-0.6-0.5-1.3-0.8-2.2-0.8s-1.5,0.3-2.2,0.8c-0.6,0.5-1.1,1.3-1.5,2.2c-0.3,1-0.5,2.2-0.5,3.5
					s0.2,2.6,0.5,3.5c0.3,1,0.8,1.7,1.5,2.2c0.6,0.5,1.3,0.8,2.2,0.8S1445.6,98.8,1446.3,98.3z"/>
				<path class="st4" d="M1459.7,92.7c0.8,0.8,1.2,1.8,1.2,3.1c0,0.9-0.2,1.7-0.6,2.4c-0.4,0.7-1,1.2-1.7,1.7s-1.7,0.6-2.8,0.6
					c-1,0-2-0.2-2.9-0.6c-0.9-0.4-1.6-0.9-2.2-1.5l0.7-1.3c0.5,0.5,1.1,1,1.9,1.3c0.8,0.3,1.6,0.5,2.5,0.5c1.2,0,2-0.3,2.7-0.8
					s0.9-1.3,0.9-2.3c0-1-0.3-1.7-0.9-2.3s-1.6-0.8-2.9-0.8h-1v-1.2l3.9-5.5h-7.2v-1.4h9v1.1l-4,5.6
					C1457.8,91.5,1459,91.9,1459.7,92.7z"/>
			</g>
			<g>
				<path class="st4" d="M1286.5,93.2h-3.7v4.1h-1.3v-4.1h-3.7v-1.3h3.7v-4.1h1.3v4.1h3.7V93.2z"/>
				<path class="st4" d="M1291.8,99.6c-0.8-0.6-1.5-1.6-2-2.8c-0.5-1.2-0.7-2.6-0.7-4.3s0.2-3.1,0.7-4.3c0.5-1.2,1.1-2.1,2-2.8
					c0.8-0.6,1.8-1,2.9-1s2,0.3,2.9,1c0.8,0.6,1.5,1.6,2,2.8c0.5,1.2,0.7,2.6,0.7,4.3s-0.2,3.1-0.7,4.3c-0.5,1.2-1.1,2.1-2,2.8
					c-0.9,0.6-1.8,1-2.9,1S1292.6,100.2,1291.8,99.6z M1296.8,98.3c0.6-0.5,1.1-1.3,1.5-2.2c0.3-1,0.5-2.2,0.5-3.5s-0.2-2.6-0.5-3.5
					c-0.3-1-0.8-1.7-1.5-2.2c-0.6-0.5-1.3-0.8-2.2-0.8s-1.5,0.3-2.2,0.8c-0.6,0.5-1.1,1.3-1.5,2.2c-0.3,1-0.5,2.2-0.5,3.5
					s0.2,2.6,0.5,3.5c0.3,1,0.8,1.7,1.5,2.2c0.6,0.5,1.3,0.8,2.2,0.8S1296.2,98.8,1296.8,98.3z"/>
				<path class="st4" d="M1314.3,96.2h-2.8v4.1h-1.4v-4.1h-7.9v-1.2l7.4-10.4h1.6l-7.2,10.2h6.1v-3.6h1.4v3.6h2.8V96.2z"/>
			</g>
			<g>
				<path class="st4" d="M1139.3,93.2h-3.7v4.1h-1.3v-4.1h-3.7v-1.3h3.7v-4.1h1.3v4.1h3.7V93.2z"/>
				<path class="st4" d="M1144.6,99.6c-0.8-0.6-1.5-1.6-2-2.8c-0.5-1.2-0.7-2.6-0.7-4.3s0.2-3.1,0.7-4.3c0.5-1.2,1.1-2.1,2-2.8
					c0.8-0.6,1.8-1,2.9-1s2,0.3,2.9,1c0.8,0.6,1.5,1.6,2,2.8c0.5,1.2,0.7,2.6,0.7,4.3s-0.2,3.1-0.7,4.3c-0.5,1.2-1.1,2.1-2,2.8
					c-0.9,0.6-1.8,1-2.9,1S1145.4,100.2,1144.6,99.6z M1149.7,98.3c0.6-0.5,1.1-1.3,1.5-2.2c0.3-1,0.5-2.2,0.5-3.5s-0.2-2.6-0.5-3.5
					c-0.3-1-0.8-1.7-1.5-2.2c-0.6-0.5-1.3-0.8-2.2-0.8s-1.5,0.3-2.2,0.8c-0.6,0.5-1.1,1.3-1.5,2.2c-0.3,1-0.5,2.2-0.5,3.5
					s0.2,2.6,0.5,3.5c0.3,1,0.8,1.7,1.5,2.2c0.6,0.5,1.3,0.8,2.2,0.8S1149,98.8,1149.7,98.3z"/>
				<path class="st4" d="M1163.3,92.3c0.9,0.8,1.4,2,1.4,3.4c0,0.9-0.2,1.7-0.6,2.5c-0.4,0.7-1,1.3-1.7,1.7
					c-0.8,0.4-1.7,0.6-2.8,0.6c-1,0-2-0.2-2.9-0.6c-0.9-0.4-1.6-0.9-2.2-1.5l0.7-1.3c0.5,0.5,1.1,1,1.8,1.3c0.8,0.3,1.6,0.5,2.5,0.5
					c1.2,0,2.1-0.3,2.7-0.9c0.6-0.6,1-1.4,1-2.3c0-1.1-0.4-1.9-1.1-2.5c-0.7-0.6-1.9-0.8-3.6-0.8h-3l0.7-7.9h7.7v1.4h-6.4l-0.5,5
					h1.8C1160.9,91.1,1162.4,91.5,1163.3,92.3z"/>
			</g>
			<g>
				<path class="st4" d="M998.9,93.2h-3.7v4.1h-1.3v-4.1h-3.7v-1.3h3.7v-4.1h1.3v4.1h3.7V93.2z"/>
				<path class="st4" d="M1004.2,99.6c-0.8-0.6-1.5-1.6-2-2.8c-0.5-1.2-0.7-2.6-0.7-4.3s0.2-3.1,0.7-4.3c0.5-1.2,1.1-2.1,2-2.8
					c0.8-0.6,1.8-1,2.9-1s2,0.3,2.9,1c0.8,0.6,1.5,1.6,2,2.8c0.5,1.2,0.7,2.6,0.7,4.3s-0.2,3.1-0.7,4.3c-0.5,1.2-1.1,2.1-2,2.8
					c-0.9,0.6-1.8,1-2.9,1S1005.1,100.2,1004.2,99.6z M1009.3,98.3c0.6-0.5,1.1-1.3,1.5-2.2c0.3-1,0.5-2.2,0.5-3.5s-0.2-2.6-0.5-3.5
					c-0.3-1-0.8-1.7-1.5-2.2c-0.6-0.5-1.3-0.8-2.2-0.8s-1.5,0.3-2.2,0.8c-0.6,0.5-1.1,1.3-1.5,2.2c-0.3,1-0.5,2.2-0.5,3.5
					s0.2,2.6,0.5,3.5c0.3,1,0.8,1.7,1.5,2.2c0.6,0.5,1.3,0.8,2.2,0.8S1008.7,98.8,1009.3,98.3z"/>
				<path class="st4" d="M1023.1,91.5c0.7,0.4,1.3,0.9,1.7,1.7c0.4,0.7,0.6,1.5,0.6,2.5c0,1-0.2,1.8-0.6,2.5c-0.4,0.7-1,1.3-1.7,1.7
					c-0.7,0.4-1.5,0.6-2.5,0.6c-1.9,0-3.3-0.7-4.3-2.1c-1-1.4-1.5-3.3-1.5-5.8c0-1.8,0.3-3.2,0.8-4.5s1.3-2.1,2.2-2.8
					c1-0.6,2.1-0.9,3.4-0.9c1.4,0,2.5,0.3,3.3,0.9l-0.6,1.3c-0.7-0.5-1.6-0.7-2.7-0.7c-1.6,0-2.8,0.6-3.7,1.7
					c-0.9,1.1-1.3,2.7-1.3,4.8c0,0.4,0,0.8,0.1,1.3c0.3-0.9,0.9-1.5,1.7-2s1.6-0.7,2.6-0.7C1021.5,91,1022.4,91.1,1023.1,91.5z
					 M1023,98.2c0.6-0.6,1-1.5,1-2.5c0-1-0.3-1.9-1-2.5s-1.5-0.9-2.6-0.9c-0.7,0-1.3,0.1-1.9,0.5s-1,0.7-1.3,1.2
					c-0.3,0.5-0.5,1.1-0.5,1.8c0,0.6,0.1,1.2,0.4,1.7c0.3,0.5,0.7,0.9,1.3,1.2c0.6,0.3,1.2,0.5,2,0.5
					C1021.5,99.1,1022.3,98.8,1023,98.2z"/>
			</g>
			<g>
				<path class="st4" d="M851.7,93.2H848v4.1h-1.3v-4.1H843v-1.3h3.7v-4.1h1.3v4.1h3.7V93.2z"/>
				<path class="st4" d="M857,99.6c-0.8-0.6-1.5-1.6-2-2.8c-0.5-1.2-0.7-2.6-0.7-4.3s0.2-3.1,0.7-4.3c0.5-1.2,1.1-2.1,2-2.8
					c0.8-0.6,1.8-1,2.9-1s2,0.3,2.9,1c0.8,0.6,1.5,1.6,2,2.8c0.5,1.2,0.7,2.6,0.7,4.3s-0.2,3.1-0.7,4.3c-0.5,1.2-1.1,2.1-2,2.8
					c-0.9,0.6-1.8,1-2.9,1S857.9,100.2,857,99.6z M862.1,98.3c0.6-0.5,1.1-1.3,1.5-2.2c0.3-1,0.5-2.2,0.5-3.5s-0.2-2.6-0.5-3.5
					c-0.3-1-0.8-1.7-1.5-2.2c-0.6-0.5-1.3-0.8-2.2-0.8s-1.5,0.3-2.2,0.8c-0.6,0.5-1.1,1.3-1.5,2.2c-0.3,1-0.5,2.2-0.5,3.5
					s0.2,2.6,0.5,3.5c0.3,1,0.8,1.7,1.5,2.2c0.6,0.5,1.3,0.8,2.2,0.8S861.5,98.8,862.1,98.3z"/>
				<path class="st4" d="M877.4,84.6v1.1l-5.9,14.6h-1.6l5.8-14.3h-7.2V89h-1.4v-4.4H877.4z"/>
			</g>
			<g>
				<path class="st4" d="M706.8,93.2h-3.7v4.1h-1.3v-4.1h-3.7v-1.3h3.7v-4.1h1.3v4.1h3.7V93.2z"/>
				<path class="st4" d="M712.1,99.6c-0.8-0.6-1.5-1.6-2-2.8c-0.5-1.2-0.7-2.6-0.7-4.3s0.2-3.1,0.7-4.3c0.5-1.2,1.1-2.1,2-2.8
					c0.8-0.6,1.8-1,2.9-1s2,0.3,2.9,1c0.8,0.6,1.5,1.6,2,2.8c0.5,1.2,0.7,2.6,0.7,4.3s-0.2,3.1-0.7,4.3c-0.5,1.2-1.1,2.1-2,2.8
					c-0.9,0.6-1.8,1-2.9,1S713,100.2,712.1,99.6z M717.2,98.3c0.6-0.5,1.1-1.3,1.5-2.2c0.3-1,0.5-2.2,0.5-3.5s-0.2-2.6-0.5-3.5
					c-0.3-1-0.8-1.7-1.5-2.2c-0.6-0.5-1.3-0.8-2.2-0.8s-1.5,0.3-2.2,0.8c-0.6,0.5-1.1,1.3-1.5,2.2c-0.3,1-0.5,2.2-0.5,3.5
					s0.2,2.6,0.5,3.5c0.3,1,0.8,1.7,1.5,2.2c0.6,0.5,1.3,0.8,2.2,0.8S716.6,98.8,717.2,98.3z"/>
				<path class="st4" d="M732.8,93.6c0.5,0.7,0.7,1.5,0.7,2.4c0,0.9-0.2,1.7-0.7,2.4c-0.4,0.7-1.1,1.2-1.9,1.6
					c-0.8,0.4-1.8,0.6-2.9,0.6c-1.7,0-3-0.4-4-1.2c-1-0.8-1.4-1.9-1.4-3.3c0-0.9,0.2-1.7,0.7-2.4c0.5-0.7,1.1-1.1,2-1.5
					c-0.7-0.3-1.3-0.8-1.6-1.4c-0.4-0.6-0.6-1.3-0.6-2.1c0-1.3,0.4-2.3,1.3-3c0.9-0.8,2.1-1.1,3.6-1.1c1,0,1.9,0.2,2.6,0.5
					c0.7,0.3,1.3,0.8,1.7,1.5c0.4,0.6,0.6,1.4,0.6,2.2c0,0.8-0.2,1.5-0.6,2.1s-0.9,1-1.7,1.4C731.7,92.5,732.3,93,732.8,93.6z
					 M731,98.3c0.7-0.6,1.1-1.3,1.1-2.3c0-1-0.4-1.7-1.1-2.3s-1.7-0.8-2.9-0.8c-1.2,0-2.2,0.3-2.9,0.8s-1.1,1.3-1.1,2.3
					c0,1,0.3,1.8,1,2.3c0.7,0.6,1.7,0.8,2.9,0.8C729.3,99.1,730.3,98.9,731,98.3z M725.5,90.8c0.6,0.5,1.5,0.8,2.5,0.8
					s1.9-0.3,2.6-0.8s0.9-1.2,0.9-2c0-0.9-0.3-1.6-1-2.1c-0.6-0.5-1.5-0.8-2.5-0.8c-1.1,0-1.9,0.3-2.5,0.8c-0.6,0.5-0.9,1.2-0.9,2.1
					C724.6,89.6,724.9,90.3,725.5,90.8z"/>
			</g>
			<g>
				<path class="st4" d="M560.1,93.2h-3.7v4.1h-1.3v-4.1h-3.7v-1.3h3.7v-4.1h1.3v4.1h3.7V93.2z"/>
				<path class="st4" d="M565.4,99.6c-0.8-0.6-1.5-1.6-2-2.8c-0.5-1.2-0.7-2.6-0.7-4.3s0.2-3.1,0.7-4.3c0.5-1.2,1.1-2.1,2-2.8
					c0.8-0.6,1.8-1,2.9-1s2,0.3,2.9,1c0.8,0.6,1.5,1.6,2,2.8c0.5,1.2,0.7,2.6,0.7,4.3s-0.2,3.1-0.7,4.3c-0.5,1.2-1.1,2.1-2,2.8
					c-0.9,0.6-1.8,1-2.9,1S566.3,100.2,565.4,99.6z M570.5,98.3c0.6-0.5,1.1-1.3,1.5-2.2c0.3-1,0.5-2.2,0.5-3.5s-0.2-2.6-0.5-3.5
					c-0.3-1-0.8-1.7-1.5-2.2c-0.6-0.5-1.3-0.8-2.2-0.8s-1.5,0.3-2.2,0.8c-0.6,0.5-1.1,1.3-1.5,2.2c-0.3,1-0.5,2.2-0.5,3.5
					s0.2,2.6,0.5,3.5c0.3,1,0.8,1.7,1.5,2.2c0.6,0.5,1.3,0.8,2.2,0.8S569.9,98.8,570.5,98.3z"/>
				<path class="st4" d="M584.7,86.6c1,1.4,1.5,3.3,1.5,5.8c0,1.8-0.3,3.2-0.8,4.5s-1.3,2.1-2.2,2.8c-1,0.6-2.1,0.9-3.4,0.9
					c-1.4,0-2.5-0.3-3.3-0.9l0.6-1.3c0.7,0.5,1.6,0.7,2.7,0.7c1.6,0,2.8-0.6,3.7-1.7c0.9-1.1,1.3-2.7,1.3-4.8c0-0.4,0-0.8-0.1-1.3
					c-0.3,0.9-0.9,1.5-1.7,2s-1.6,0.7-2.6,0.7c-0.9,0-1.7-0.2-2.5-0.6c-0.7-0.4-1.3-0.9-1.7-1.7c-0.4-0.7-0.6-1.5-0.6-2.5
					c0-1,0.2-1.8,0.6-2.5c0.4-0.7,1-1.3,1.7-1.7c0.7-0.4,1.5-0.6,2.5-0.6C582.2,84.5,583.7,85.2,584.7,86.6z M582.4,92.2
					c0.5-0.3,1-0.7,1.3-1.2c0.3-0.5,0.5-1.1,0.5-1.8c0-0.6-0.1-1.2-0.4-1.7c-0.3-0.5-0.7-0.9-1.3-1.2c-0.6-0.3-1.2-0.5-2-0.5
					c-1,0-1.8,0.3-2.5,0.9c-0.6,0.6-1,1.5-1,2.5s0.3,1.9,1,2.5c0.6,0.6,1.5,0.9,2.6,0.9C581.3,92.7,581.9,92.5,582.4,92.2z"/>
			</g>
			<g>
				<path class="st4" d="M418.8,93.2h-3.7v4.1h-1.3v-4.1h-3.7v-1.3h3.7v-4.1h1.3v4.1h3.7V93.2z"/>
				<path class="st4" d="M424.8,84.6v15.8h-1.4V86.1h-3.3v-1.4H424.8z"/>
				<path class="st4" d="M430.9,99.6c-0.8-0.6-1.5-1.6-2-2.8c-0.5-1.2-0.7-2.6-0.7-4.3s0.2-3.1,0.7-4.3c0.5-1.2,1.1-2.1,2-2.8
					c0.8-0.6,1.8-1,2.9-1s2,0.3,2.9,1c0.8,0.6,1.5,1.6,2,2.8c0.5,1.2,0.7,2.6,0.7,4.3s-0.2,3.1-0.7,4.3c-0.5,1.2-1.1,2.1-2,2.8
					c-0.9,0.6-1.8,1-2.9,1S431.7,100.2,430.9,99.6z M435.9,98.3c0.6-0.5,1.1-1.3,1.5-2.2c0.3-1,0.5-2.2,0.5-3.5s-0.2-2.6-0.5-3.5
					c-0.3-1-0.8-1.7-1.5-2.2c-0.6-0.5-1.3-0.8-2.2-0.8s-1.5,0.3-2.2,0.8c-0.6,0.5-1.1,1.3-1.5,2.2c-0.3,1-0.5,2.2-0.5,3.5
					s0.2,2.6,0.5,3.5c0.3,1,0.8,1.7,1.5,2.2c0.6,0.5,1.3,0.8,2.2,0.8S435.3,98.8,435.9,98.3z"/>
			</g>
		</g>
	</g>
	<g>
		<line class="st2" x1="1876.3" y1="1039.3" x2="1876.3" y2="43.5"/>
		<g>
			<g>
				<line class="st2" x1="1879.8" y1="43.5" x2="1901.5" y2="43.5"/>
				<line class="st1" x1="1883" y1="71.4" x2="1893.8" y2="71.4"/>
				<line class="st1" x1="1883" y1="102.6" x2="1893.8" y2="102.6"/>
				<line class="st1" x1="1883" y1="133.9" x2="1893.8" y2="133.9"/>
				<line class="st1" x1="1883" y1="161.9" x2="1893.8" y2="161.9"/>
			</g>
			<g>
				<line class="st2" x1="1879.8" y1="186.1" x2="1901.5" y2="186.1"/>
				<line class="st1" x1="1883" y1="214" x2="1893.8" y2="214"/>
				<line class="st1" x1="1883" y1="245.3" x2="1893.8" y2="245.3"/>
				<line class="st1" x1="1883" y1="276.5" x2="1893.8" y2="276.5"/>
				<line class="st1" x1="1883" y1="304.6" x2="1893.8" y2="304.6"/>
			</g>
			<g>
				<line class="st2" x1="1879.8" y1="331.3" x2="1901.5" y2="331.3"/>
				<line class="st1" x1="1883" y1="359.2" x2="1893.8" y2="359.2"/>
				<line class="st1" x1="1883" y1="390.4" x2="1893.8" y2="390.4"/>
				<line class="st1" x1="1883" y1="421.7" x2="1893.8" y2="421.7"/>
				<line class="st1" x1="1883" y1="449.8" x2="1893.8" y2="449.8"/>
			</g>
			<g>
				<line class="st2" x1="1879.8" y1="477.6" x2="1901.5" y2="477.6"/>
				<line class="st1" x1="1883" y1="505.5" x2="1893.8" y2="505.5"/>
				<line class="st1" x1="1883" y1="536.8" x2="1893.8" y2="536.8"/>
				<line class="st1" x1="1883" y1="568" x2="1893.8" y2="568"/>
				<line class="st1" x1="1883" y1="596.1" x2="1893.8" y2="596.1"/>
			</g>
			<g>
				<line class="st2" x1="1879.8" y1="622.8" x2="1901.5" y2="622.8"/>
				<line class="st1" x1="1883" y1="650.7" x2="1893.8" y2="650.7"/>
				<line class="st1" x1="1883" y1="681.9" x2="1893.8" y2="681.9"/>
				<line class="st1" x1="1883" y1="713.2" x2="1893.8" y2="713.2"/>
				<line class="st1" x1="1883" y1="741.3" x2="1893.8" y2="741.3"/>
			</g>
			<g>
				<line class="st2" x1="1879.8" y1="765.5" x2="1901.5" y2="765.5"/>
				<line class="st1" x1="1883" y1="793.3" x2="1893.8" y2="793.3"/>
				<line class="st1" x1="1883" y1="824.6" x2="1893.8" y2="824.6"/>
				<line class="st1" x1="1883" y1="855.8" x2="1893.8" y2="855.8"/>
				<line class="st1" x1="1883" y1="883.9" x2="1893.8" y2="883.9"/>
			</g>
			<g>
				<line class="st2" x1="1879.8" y1="910.6" x2="1901.5" y2="910.6"/>
				<line class="st1" x1="1883" y1="938.5" x2="1893.8" y2="938.5"/>
				<line class="st1" x1="1883" y1="969.8" x2="1893.8" y2="969.8"/>
				<line class="st1" x1="1883" y1="1001" x2="1893.8" y2="1001"/>
				<line class="st1" x1="1883" y1="1029.1" x2="1893.8" y2="1029.1"/>
			</g>
		</g>
		<g>
			<g>
				<path class="st4" d="M1837,186.9h-3.7v4.1h-1.3v-4.1h-3.7v-1.3h3.7v-4.1h1.3v4.1h3.7V186.9z"/>
				<path class="st4" d="M1842.3,193.3c-0.8-0.6-1.5-1.6-2-2.8c-0.5-1.2-0.7-2.6-0.7-4.3s0.2-3.1,0.7-4.3c0.5-1.2,1.1-2.1,2-2.8
					c0.8-0.6,1.8-1,2.9-1s2,0.3,2.9,1c0.8,0.6,1.5,1.6,2,2.8c0.5,1.2,0.7,2.6,0.7,4.3s-0.2,3.1-0.7,4.3c-0.5,1.2-1.1,2.1-2,2.8
					c-0.9,0.6-1.8,1-2.9,1S1843.2,193.9,1842.3,193.3z M1847.4,192c0.6-0.5,1.1-1.3,1.5-2.2c0.3-1,0.5-2.2,0.5-3.5s-0.2-2.6-0.5-3.5
					c-0.3-1-0.8-1.7-1.5-2.2c-0.6-0.5-1.3-0.8-2.2-0.8s-1.5,0.3-2.2,0.8c-0.6,0.5-1.1,1.3-1.5,2.2c-0.3,1-0.5,2.2-0.5,3.5
					s0.2,2.6,0.5,3.5c0.3,1,0.8,1.7,1.5,2.2c0.6,0.5,1.3,0.8,2.2,0.8S1846.8,192.5,1847.4,192z"/>
				<path class="st4" d="M1856.8,178.4v15.8h-1.4v-14.3h-3.3v-1.4H1856.8z"/>
			</g>
			<g>
				<path class="st4" d="M1834.9,332.9h-3.7v4.1h-1.3v-4.1h-3.7v-1.3h3.7v-4.1h1.3v4.1h3.7V332.9z"/>
				<path class="st4" d="M1840.3,339.3c-0.8-0.6-1.5-1.6-2-2.8c-0.5-1.2-0.7-2.6-0.7-4.3s0.2-3.1,0.7-4.3c0.5-1.2,1.1-2.1,2-2.8
					c0.8-0.6,1.8-1,2.9-1s2,0.3,2.9,1c0.8,0.6,1.5,1.6,2,2.8c0.5,1.2,0.7,2.6,0.7,4.3s-0.2,3.1-0.7,4.3c-0.5,1.2-1.1,2.1-2,2.8
					c-0.9,0.6-1.8,1-2.9,1S1841.1,339.9,1840.3,339.3z M1845.3,338c0.6-0.5,1.1-1.3,1.5-2.2c0.3-1,0.5-2.2,0.5-3.5s-0.2-2.6-0.5-3.5
					c-0.3-1-0.8-1.7-1.5-2.2c-0.6-0.5-1.3-0.8-2.2-0.8s-1.5,0.3-2.2,0.8c-0.6,0.5-1.1,1.3-1.5,2.2c-0.3,1-0.5,2.2-0.5,3.5
					s0.2,2.6,0.5,3.5c0.3,1,0.8,1.7,1.5,2.2c0.6,0.5,1.3,0.8,2.2,0.8S1844.7,338.5,1845.3,338z"/>
				<path class="st4" d="M1860.4,338.7v1.4h-9.9V339l5.8-6.4c0.7-0.8,1.2-1.5,1.5-2.1c0.3-0.6,0.4-1.2,0.4-1.8
					c0-0.9-0.3-1.7-0.9-2.2c-0.6-0.5-1.4-0.8-2.4-0.8c-1.6,0-2.9,0.6-3.8,1.8l-1-1c0.5-0.7,1.2-1.3,2.1-1.7c0.8-0.4,1.8-0.6,2.9-0.6
					c1.4,0,2.6,0.4,3.4,1.1c0.8,0.8,1.3,1.8,1.3,3.1c0,0.8-0.2,1.6-0.5,2.3c-0.3,0.8-0.9,1.6-1.8,2.6l-4.8,5.3H1860.4z"/>
			</g>
			<g>
				<path class="st4" d="M1835.1,477.9h-3.7v4.1h-1.3v-4.1h-3.7v-1.3h3.7v-4.1h1.3v4.1h3.7V477.9z"/>
				<path class="st4" d="M1840.4,484.3c-0.8-0.6-1.5-1.6-2-2.8c-0.5-1.2-0.7-2.6-0.7-4.3s0.2-3.1,0.7-4.3c0.5-1.2,1.1-2.1,2-2.8
					c0.8-0.6,1.8-1,2.9-1s2,0.3,2.9,1c0.8,0.6,1.5,1.6,2,2.8c0.5,1.2,0.7,2.6,0.7,4.3s-0.2,3.1-0.7,4.3c-0.5,1.2-1.1,2.1-2,2.8
					c-0.9,0.6-1.8,1-2.9,1S1841.2,485,1840.4,484.3z M1845.4,483c0.6-0.5,1.1-1.3,1.5-2.2c0.3-1,0.5-2.2,0.5-3.5s-0.2-2.6-0.5-3.5
					c-0.3-1-0.8-1.7-1.5-2.2c-0.6-0.5-1.3-0.8-2.2-0.8s-1.5,0.3-2.2,0.8c-0.6,0.5-1.1,1.3-1.5,2.2c-0.3,1-0.5,2.2-0.5,3.5
					s0.2,2.6,0.5,3.5c0.3,1,0.8,1.7,1.5,2.2c0.6,0.5,1.3,0.8,2.2,0.8S1844.8,483.5,1845.4,483z"/>
				<path class="st4" d="M1858.9,477.5c0.8,0.8,1.2,1.8,1.2,3.1c0,0.9-0.2,1.7-0.6,2.4c-0.4,0.7-1,1.2-1.7,1.7s-1.7,0.6-2.8,0.6
					c-1,0-2-0.2-2.9-0.6c-0.9-0.4-1.6-0.9-2.2-1.5l0.7-1.3c0.5,0.5,1.1,1,1.9,1.3c0.8,0.3,1.6,0.5,2.5,0.5c1.2,0,2-0.3,2.7-0.8
					s0.9-1.3,0.9-2.3c0-1-0.3-1.7-0.9-2.3s-1.6-0.8-2.9-0.8h-1v-1.2l3.9-5.5h-7.2v-1.4h9v1.1l-4,5.6
					C1857,476.2,1858.1,476.7,1858.9,477.5z"/>
			</g>
			<g>
				<path class="st4" d="M1834,623.1h-3.7v4.1h-1.3v-4.1h-3.7v-1.3h3.7v-4.1h1.3v4.1h3.7V623.1z"/>
				<path class="st4" d="M1839.3,629.5c-0.8-0.6-1.5-1.6-2-2.8c-0.5-1.2-0.7-2.6-0.7-4.3c0-1.6,0.2-3.1,0.7-4.3
					c0.5-1.2,1.1-2.1,2-2.8c0.8-0.6,1.8-1,2.9-1s2,0.3,2.9,1c0.8,0.6,1.5,1.6,2,2.8c0.5,1.2,0.7,2.6,0.7,4.3c0,1.6-0.2,3.1-0.7,4.3
					c-0.5,1.2-1.1,2.1-2,2.8c-0.9,0.6-1.8,1-2.9,1S1840.2,630.1,1839.3,629.5z M1844.4,628.2c0.6-0.5,1.1-1.3,1.5-2.2
					c0.3-1,0.5-2.2,0.5-3.5c0-1.4-0.2-2.6-0.5-3.5c-0.3-1-0.8-1.7-1.5-2.2s-1.3-0.8-2.2-0.8s-1.5,0.3-2.2,0.8
					c-0.6,0.5-1.1,1.3-1.5,2.2c-0.3,1-0.5,2.2-0.5,3.5c0,1.4,0.2,2.6,0.5,3.5c0.3,1,0.8,1.7,1.5,2.2c0.6,0.5,1.3,0.8,2.2,0.8
					S1843.7,628.7,1844.4,628.2z"/>
				<path class="st4" d="M1861.8,626.2h-2.8v4.1h-1.4v-4.1h-7.9V625l7.4-10.4h1.6l-7.2,10.2h6.1v-3.6h1.4v3.6h2.8V626.2z"/>
			</g>
			<g>
				<path class="st4" d="M1834.9,767.9h-3.7v4.1h-1.3v-4.1h-3.7v-1.3h3.7v-4.1h1.3v4.1h3.7V767.9z"/>
				<path class="st4" d="M1840.3,774.2c-0.8-0.6-1.5-1.6-2-2.8c-0.5-1.2-0.7-2.6-0.7-4.3c0-1.6,0.2-3.1,0.7-4.3
					c0.5-1.2,1.1-2.1,2-2.8c0.8-0.6,1.8-1,2.9-1s2,0.3,2.9,1c0.8,0.6,1.5,1.6,2,2.8c0.5,1.2,0.7,2.6,0.7,4.3c0,1.6-0.2,3.1-0.7,4.3
					c-0.5,1.2-1.1,2.1-2,2.8c-0.9,0.6-1.8,1-2.9,1S1841.1,774.9,1840.3,774.2z M1845.3,772.9c0.6-0.5,1.1-1.3,1.5-2.2
					c0.3-1,0.5-2.2,0.5-3.5c0-1.4-0.2-2.6-0.5-3.5c-0.3-1-0.8-1.7-1.5-2.2c-0.6-0.5-1.3-0.8-2.2-0.8s-1.5,0.3-2.2,0.8
					c-0.6,0.5-1.1,1.3-1.5,2.2c-0.3,1-0.5,2.2-0.5,3.5c0,1.4,0.2,2.6,0.5,3.5c0.3,1,0.8,1.7,1.5,2.2c0.6,0.5,1.3,0.8,2.2,0.8
					S1844.7,773.5,1845.3,772.9z"/>
				<path class="st4" d="M1859,767c0.9,0.8,1.4,2,1.4,3.4c0,0.9-0.2,1.7-0.6,2.5c-0.4,0.7-1,1.3-1.7,1.7c-0.8,0.4-1.7,0.6-2.8,0.6
					c-1,0-2-0.2-2.9-0.6s-1.6-0.9-2.2-1.5l0.7-1.3c0.5,0.5,1.1,1,1.8,1.3c0.8,0.3,1.6,0.5,2.5,0.5c1.2,0,2.1-0.3,2.7-0.9
					c0.6-0.6,1-1.4,1-2.3c0-1.1-0.4-1.9-1.1-2.5s-1.9-0.8-3.6-0.8h-3l0.7-7.9h7.7v1.4h-6.4l-0.5,5h1.8
					C1856.6,765.8,1858.1,766.2,1859,767z"/>
			</g>
			<g>
				<path class="st4" d="M1834.5,911.2h-3.7v4.1h-1.3v-4.1h-3.7v-1.3h3.7v-4.1h1.3v4.1h3.7V911.2z"/>
				<path class="st4" d="M1839.8,917.6c-0.8-0.6-1.5-1.6-2-2.8c-0.5-1.2-0.7-2.6-0.7-4.3c0-1.6,0.2-3.1,0.7-4.3
					c0.5-1.2,1.1-2.1,2-2.8c0.8-0.6,1.8-1,2.9-1s2,0.3,2.9,1c0.8,0.6,1.5,1.6,2,2.8c0.5,1.2,0.7,2.6,0.7,4.3c0,1.6-0.2,3.1-0.7,4.3
					c-0.5,1.2-1.1,2.1-2,2.8c-0.9,0.6-1.8,1-2.9,1S1840.7,918.2,1839.8,917.6z M1844.9,916.3c0.6-0.5,1.1-1.3,1.5-2.2
					c0.3-1,0.5-2.2,0.5-3.5c0-1.4-0.2-2.6-0.5-3.5c-0.3-1-0.8-1.7-1.5-2.2c-0.6-0.5-1.3-0.8-2.2-0.8s-1.5,0.3-2.2,0.8
					c-0.6,0.5-1.1,1.3-1.5,2.2c-0.3,1-0.5,2.2-0.5,3.5c0,1.4,0.2,2.6,0.5,3.5c0.3,1,0.8,1.7,1.5,2.2c0.6,0.5,1.3,0.8,2.2,0.8
					S1844.3,916.8,1844.9,916.3z"/>
				<path class="st4" d="M1858.7,909.6c0.7,0.4,1.3,0.9,1.7,1.7s0.6,1.5,0.6,2.5c0,1-0.2,1.8-0.6,2.5c-0.4,0.7-1,1.3-1.7,1.7
					c-0.7,0.4-1.5,0.6-2.5,0.6c-1.9,0-3.3-0.7-4.3-2.1c-1-1.4-1.5-3.3-1.5-5.8c0-1.8,0.3-3.2,0.8-4.5c0.5-1.2,1.3-2.1,2.2-2.8
					c1-0.6,2.1-0.9,3.4-0.9c1.4,0,2.5,0.3,3.3,0.9l-0.6,1.3c-0.7-0.5-1.6-0.7-2.7-0.7c-1.6,0-2.8,0.6-3.7,1.7
					c-0.9,1.1-1.3,2.7-1.3,4.8c0,0.4,0,0.8,0.1,1.3c0.3-0.9,0.9-1.5,1.7-2s1.6-0.7,2.6-0.7C1857.2,909,1858,909.2,1858.7,909.6z
					 M1858.6,916.2c0.6-0.6,1-1.5,1-2.5c0-1-0.3-1.9-1-2.5s-1.5-0.9-2.6-0.9c-0.7,0-1.3,0.1-1.9,0.5c-0.5,0.3-1,0.7-1.3,1.2
					s-0.5,1.1-0.5,1.8c0,0.6,0.1,1.2,0.4,1.7c0.3,0.5,0.7,0.9,1.3,1.2c0.6,0.3,1.2,0.5,2,0.5C1857.1,917.2,1858,916.9,1858.6,916.2z
					"/>
			</g>
		</g>
	</g>
</g>
<g id="Calque_6">
	<rect x="28.8" y="43.5" class="st0" width="369.5" height="92.4"/>
	<rect x="28.8" y="43.5" class="st1" width="369.5" height="92.4"/>
</g>
<g id="Calque_8">
	<line class="st5" x1="1771.9" y1="1039.3" x2="1771.9" y2="163.1"/>
	<polyline class="st6" points="1754.6,174.4 1764.4,174.4 1764.4,197.8 1754.6,197.8 	"/>
	<polyline class="st6" points="1789.2,197.8 1779.4,197.8 1779.4,174.4 1789.2,174.4 	"/>
	<polyline class="st6" points="1754.6,320.6 1764.4,320.6 1764.4,343.9 1754.6,343.9 	"/>
	<polyline class="st6" points="1789.2,343.9 1779.4,343.9 1779.4,320.6 1789.2,320.6 	"/>
	<polyline class="st6" points="1754.6,465.6 1764.4,465.6 1764.4,489 1754.6,489 	"/>
	<polyline class="st6" points="1789.2,489 1779.4,489 1779.4,465.6 1789.2,465.6 	"/>
	<polyline class="st6" points="1754.6,611.1 1764.4,611.1 1764.4,634.5 1754.6,634.5 	"/>
	<polyline class="st6" points="1789.2,634.5 1779.4,634.5 1779.4,611.1 1789.2,611.1 	"/>
	<polyline class="st6" points="1754.6,753.8 1764.4,753.8 1764.4,777.1 1754.6,777.1 	"/>
	<polyline class="st6" points="1789.2,777.1 1779.4,777.1 1779.4,753.8 1789.2,753.8 	"/>
	<polyline class="st6" points="1754.6,898.9 1764.4,898.9 1764.4,922.3 1754.6,922.3 	"/>
	<polyline class="st6" points="1789.2,922.3 1779.4,922.3 1779.4,898.9 1789.2,898.9 	"/>
</g>
</svg>
